# Made in Blockbench 4.2.4
mtllib crop_plamstem_stage0.mtl

o cube_0
v 0.6623797632095823 0.25 0.40625
v 0.6623797632095823 0.25 0.40625
v 0.6623797632095823 -0.0625 0.40625
v 0.6623797632095823 -0.0625 0.40625
v 0.33762023679041775 0.25 0.59375
v 0.33762023679041775 0.25 0.59375
v 0.33762023679041775 -0.0625 0.59375
v 0.33762023679041775 -0.0625 0.59375
vt 0.1875 1
vt 0 1
vt 0 0.84375
vt 0.1875 0.84375
vt 0 1
vt 0 1
vt 0 0.84375
vt 0 0.84375
vt 0 1
vt 0.1875 1
vt 0.1875 0.84375
vt 0 0.84375
vt 0 1
vt 0 1
vt 0 0.84375
vt 0 0.84375
vt 0 1
vt 0.1875 1
vt 0.1875 1
vt 0 1
vt 0 1
vt 0.1875 1
vt 0.1875 1
vt 0 1
vn -0.5000000000000001 0 -0.8660254037844386
vn 0.8660254037844386 0 -0.5000000000000001
vn 0.5000000000000001 0 0.8660254037844386
vn -0.8660254037844386 0 0.5000000000000001
vn 0 1 0
vn 0 -1 0
usemtl m_0
f 4/4/1 7/3/1 5/2/1 2/1/1
usemtl none
f 3/8/2 4/7/2 2/6/2 1/5/2
usemtl m_0
f 8/12/3 3/11/3 1/10/3 6/9/3
usemtl none
f 7/16/4 8/15/4 6/14/4 5/13/4
f 6/20/5 1/19/5 2/18/5 5/17/5
f 7/24/6 4/23/6 3/22/6 8/21/6
o cube_1
v 0.40625 0.25 0.33762023679041775
v 0.40625 0.25 0.33762023679041775
v 0.40625 -0.0625 0.33762023679041775
v 0.40625 -0.0625 0.33762023679041775
v 0.59375 0.25 0.6623797632095823
v 0.59375 0.25 0.6623797632095823
v 0.59375 -0.0625 0.6623797632095823
v 0.59375 -0.0625 0.6623797632095823
vt 0.1875 1
vt 0 1
vt 0 0.84375
vt 0.1875 0.84375
vt 0 1
vt 0 1
vt 0 0.84375
vt 0 0.84375
vt 0 1
vt 0.1875 1
vt 0.1875 0.84375
vt 0 0.84375
vt 0 1
vt 0 1
vt 0 0.84375
vt 0 0.84375
vt 0 1
vt 0.1875 1
vt 0.1875 1
vt 0 1
vt 0 1
vt 0.1875 1
vt 0.1875 1
vt 0 1
vn -0.8660254037844388 0 0.49999999999999994
vn -0.49999999999999994 0 -0.8660254037844388
vn 0.8660254037844388 0 -0.49999999999999994
vn 0.49999999999999994 0 0.8660254037844388
vn 0 1 0
vn 0 -1 0
usemtl m_0
f 12/28/7 15/27/7 13/26/7 10/25/7
usemtl none
f 11/32/8 12/31/8 10/30/8 9/29/8
usemtl m_0
f 16/36/9 11/35/9 9/34/9 14/33/9
usemtl none
f 15/40/10 16/39/10 14/38/10 13/37/10
f 14/44/11 9/43/11 10/42/11 13/41/11
f 15/48/12 12/47/12 11/46/12 16/45/12